<svg id="Capa_1" data-name="Capa 1" xmlns="http://www.w3.org/2000/svg" viewBox="0 0 512 512"><defs><style>.cls-1{fill:#fff;}</style></defs><title>w2</title><path class="cls-1" d="M256,349.51a46.76,46.76,0,1,0,46.76,46.76A46.77,46.77,0,0,0,256,349.51Z"/><path class="cls-1" d="M256,162.49a233.37,233.37,0,0,0-178.93,83.6,23.38,23.38,0,0,0,35.8,30.08,186.55,186.55,0,0,1,286.29,0A23.38,23.38,0,0,0,435,246.09,233.43,233.43,0,0,0,256,162.49Z"/><path class="cls-1" d="M256,256a140,140,0,0,0-107.37,50.15,23.38,23.38,0,0,0,35.8,30.08,93.24,93.24,0,0,1,143.14,0,23.38,23.38,0,0,0,35.8-30.08A140,140,0,0,0,256,256Z"/></svg>